<svg width="1416" height="502" viewBox="0 0 1416 502" fill="none" xmlns="http://www.w3.org/2000/svg">
<path d="M1236 318.5H1201L1273.5 117H1311.5L1384 318.5H1349L1292.5 157L1236 318.5Z" fill="#000720" stroke="#011C35"/>
<path d="M479.16 321.03C465.627 321.03 453.447 318.71 442.62 314.07C431.793 309.237 423.287 302.47 417.1 293.77C410.913 285.07 407.82 274.92 407.82 263.32H443.2C443.973 272.02 447.357 279.173 453.35 284.78C459.537 290.387 468.14 293.19 479.16 293.19C490.567 293.19 499.46 290.483 505.84 285.07C512.22 279.463 515.41 272.31 515.41 263.61C515.41 256.843 513.38 251.333 509.32 247.08C505.453 242.827 500.523 239.54 494.53 237.22C488.73 234.9 480.61 232.387 470.17 229.68C457.023 226.2 446.293 222.72 437.98 219.24C429.86 215.567 422.9 209.96 417.1 202.42C411.3 194.88 408.4 184.827 408.4 172.26C408.4 160.66 411.3 150.51 417.1 141.81C422.9 133.11 431.02 126.44 441.46 121.8C451.9 117.16 463.983 114.84 477.71 114.84C497.237 114.84 513.187 119.77 525.56 129.63C538.127 139.297 545.087 152.637 546.44 169.65H509.9C509.32 162.303 505.84 156.02 499.46 150.8C493.08 145.58 484.67 142.97 474.23 142.97C464.757 142.97 457.023 145.387 451.03 150.22C445.037 155.053 442.04 162.013 442.04 171.1C442.04 177.287 443.877 182.41 447.55 186.47C451.417 190.337 456.25 193.43 462.05 195.75C467.85 198.07 475.777 200.583 485.83 203.29C499.17 206.963 509.997 210.637 518.31 214.31C526.817 217.983 533.97 223.687 539.77 231.42C545.763 238.96 548.76 249.11 548.76 261.87C548.76 272.117 545.957 281.783 540.35 290.87C534.937 299.957 526.913 307.303 516.28 312.91C505.84 318.323 493.467 321.03 479.16 321.03ZM729 321.03C710.246 321.03 692.943 316.68 677.09 307.98C661.43 299.087 648.96 286.81 639.68 271.15C630.593 255.297 626.05 237.51 626.05 217.79C626.05 198.07 630.593 180.38 639.68 164.72C648.96 149.06 661.43 136.88 677.09 128.18C692.943 119.287 710.246 114.84 729 114.84C747.946 114.84 765.25 119.287 780.91 128.18C796.763 136.88 809.233 149.06 818.32 164.72C827.406 180.38 831.95 198.07 831.95 217.79C831.95 237.51 827.406 255.297 818.32 271.15C809.233 286.81 796.763 299.087 780.91 307.98C765.25 316.68 747.946 321.03 729 321.03ZM729 292.32C742.34 292.32 754.23 289.323 764.67 283.33C775.11 277.143 783.23 268.443 789.03 257.23C795.023 245.823 798.02 232.677 798.02 217.79C798.02 202.903 795.023 189.853 789.03 178.64C783.23 167.427 775.11 158.823 764.67 152.83C754.23 146.837 742.34 143.84 729 143.84C715.66 143.84 703.77 146.837 693.33 152.83C682.89 158.823 674.673 167.427 668.68 178.64C662.88 189.853 659.98 202.903 659.98 217.79C659.98 232.677 662.88 245.823 668.68 257.23C674.673 268.443 682.89 277.143 693.33 283.33C703.77 289.323 715.66 292.32 729 292.32ZM1126.06 117.45V319H1093V180.96L1031.52 319H1008.61L946.842 180.96V319H913.782V117.45H949.452L1020.21 275.5L1090.68 117.45H1126.06Z" fill="#011C35"/>
<path d="M245.118 369.5C205.205 399.9 189.442 446.5 186.55 466C215.292 464.5 253.252 462.5 304.228 426C345.009 396.8 357.735 345.167 359 323C340.02 323.5 295.009 331.5 245.118 369.5Z" fill="url(#paint0_linear_5_5)"/>
<path d="M113.882 369.5C153.795 399.9 169.558 446.5 172.45 466C143.708 464.5 105.748 462.5 54.7719 426C13.9912 396.8 1.26537 345.167 0 323C18.9804 323.5 63.9909 331.5 113.882 369.5Z" fill="url(#paint1_linear_5_5)"/>
<path d="M193.059 208.044C189.443 204.044 183.623 191.844 189.263 175.044C203.36 136.049 252.27 137.166 276.027 142.78C269.517 127.015 176.79 90.544 118.222 140.044C59.6538 189.544 88.9378 232.544 95.9876 245.044C103.037 257.544 106.291 260.544 152.929 301.544C199.566 342.544 189.805 367.044 189.805 376.544C180.586 401.044 182.213 418.044 183.297 418.044C184.382 407.544 204.447 384.044 219.089 368.544C233.731 353.044 270.065 332.544 274.945 330.044C284.164 291.044 260.846 274.044 260.846 272.044C260.846 270.044 238.611 250.044 220.716 237.044C206.399 226.644 196.312 213.377 193.059 208.044Z" fill="url(#paint2_linear_5_5)"/>
<ellipse cx="182.754" cy="52.5" rx="53.6873" ry="49.5" fill="url(#paint3_radial_5_5)"/>
<path d="M458.16 403.18L436.92 444.13V466H424.32V444.13L402.99 403.18H417.21L430.71 431.89L444.12 403.18H458.16ZM512.587 466.63C506.707 466.63 501.307 465.25 496.387 462.49C491.467 459.73 487.567 455.92 484.687 451.06C481.807 446.14 480.367 440.59 480.367 434.41C480.367 428.29 481.807 422.8 484.687 417.94C487.567 413.02 491.467 409.18 496.387 406.42C501.307 403.66 506.707 402.28 512.587 402.28C518.527 402.28 523.927 403.66 528.787 406.42C533.707 409.18 537.577 413.02 540.397 417.94C543.277 422.8 544.717 428.29 544.717 434.41C544.717 440.59 543.277 446.14 540.397 451.06C537.577 455.92 533.707 459.73 528.787 462.49C523.867 465.25 518.467 466.63 512.587 466.63ZM512.587 455.38C516.367 455.38 519.697 454.54 522.577 452.86C525.457 451.12 527.707 448.66 529.327 445.48C530.947 442.3 531.757 438.61 531.757 434.41C531.757 430.21 530.947 426.55 529.327 423.43C527.707 420.25 525.457 417.82 522.577 416.14C519.697 414.46 516.367 413.62 512.587 413.62C508.807 413.62 505.447 414.46 502.507 416.14C499.627 417.82 497.377 420.25 495.757 423.43C494.137 426.55 493.327 430.21 493.327 434.41C493.327 438.61 494.137 442.3 495.757 445.48C497.377 448.66 499.627 451.12 502.507 452.86C505.447 454.54 508.807 455.38 512.587 455.38ZM615.831 422.08C614.391 419.44 612.411 417.43 609.891 416.05C607.371 414.67 604.431 413.98 601.071 413.98C597.351 413.98 594.051 414.82 591.171 416.5C588.291 418.18 586.041 420.58 584.421 423.7C582.801 426.82 581.991 430.42 581.991 434.5C581.991 438.7 582.801 442.36 584.421 445.48C586.101 448.6 588.411 451 591.351 452.68C594.291 454.36 597.711 455.2 601.611 455.2C606.411 455.2 610.341 453.94 613.401 451.42C616.461 448.84 618.471 445.27 619.431 440.71H597.831V431.08H631.851V442.06C631.011 446.44 629.211 450.49 626.451 454.21C623.691 457.93 620.121 460.93 615.741 463.21C611.421 465.43 606.561 466.54 601.161 466.54C595.101 466.54 589.611 465.19 584.691 462.49C579.831 459.73 575.991 455.92 573.171 451.06C570.411 446.2 569.031 440.68 569.031 434.5C569.031 428.32 570.411 422.8 573.171 417.94C575.991 413.02 579.831 409.21 584.691 406.51C589.611 403.75 595.071 402.37 601.071 402.37C608.151 402.37 614.301 404.11 619.521 407.59C624.741 411.01 628.341 415.84 630.321 422.08H615.831ZM697.693 454.03H672.673L668.533 466H655.303L677.893 403.09H692.563L715.153 466H701.833L697.693 454.03ZM694.273 443.95L685.183 417.67L676.093 443.95H694.273ZM826.852 422.62C826.852 425.98 826.042 429.13 824.422 432.07C822.862 435.01 820.372 437.38 816.952 439.18C813.592 440.98 809.332 441.88 804.172 441.88H793.642V466H781.042V403.18H804.172C809.032 403.18 813.172 404.02 816.592 405.7C820.012 407.38 822.562 409.69 824.242 412.63C825.982 415.57 826.852 418.9 826.852 422.62ZM803.632 431.71C807.112 431.71 809.692 430.93 811.372 429.37C813.052 427.75 813.892 425.5 813.892 422.62C813.892 416.5 810.472 413.44 803.632 413.44H793.642V431.71H803.632ZM886.198 466L872.338 441.52H866.398V466H853.798V403.18H877.378C882.238 403.18 886.378 404.05 889.798 405.79C893.218 407.47 895.768 409.78 897.448 412.72C899.188 415.6 900.058 418.84 900.058 422.44C900.058 426.58 898.858 430.33 896.458 433.69C894.058 436.99 890.488 439.27 885.748 440.53L900.778 466H886.198ZM866.398 432.07H876.928C880.348 432.07 882.898 431.26 884.578 429.64C886.258 427.96 887.098 425.65 887.098 422.71C887.098 419.83 886.258 417.61 884.578 416.05C882.898 414.43 880.348 413.62 876.928 413.62H866.398V432.07ZM942.054 413.35V429.1H963.204V439.09H942.054V455.74H965.904V466H929.454V403.09H965.904V413.35H942.054ZM992.295 434.5C992.295 428.32 993.675 422.8 996.435 417.94C999.255 413.02 1003.06 409.21 1007.86 406.51C1012.72 403.75 1018.15 402.37 1024.15 402.37C1031.17 402.37 1037.32 404.17 1042.6 407.77C1047.88 411.37 1051.57 416.35 1053.67 422.71H1039.18C1037.74 419.71 1035.7 417.46 1033.06 415.96C1030.48 414.46 1027.48 413.71 1024.06 413.71C1020.4 413.71 1017.13 414.58 1014.25 416.32C1011.43 418 1009.21 420.4 1007.59 423.52C1006.03 426.64 1005.25 430.3 1005.25 434.5C1005.25 438.64 1006.03 442.3 1007.59 445.48C1009.21 448.6 1011.43 451.03 1014.25 452.77C1017.13 454.45 1020.4 455.29 1024.06 455.29C1027.48 455.29 1030.48 454.54 1033.06 453.04C1035.7 451.48 1037.74 449.2 1039.18 446.2H1053.67C1051.57 452.62 1047.88 457.63 1042.6 461.23C1037.38 464.77 1031.23 466.54 1024.15 466.54C1018.15 466.54 1012.72 465.19 1007.86 462.49C1003.06 459.73 999.255 455.92 996.435 451.06C993.675 446.2 992.295 440.68 992.295 434.5ZM1095.04 403.18V466H1082.44V403.18H1095.04ZM1147.18 466.63C1142.8 466.63 1138.84 465.88 1135.3 464.38C1131.82 462.88 1129.06 460.72 1127.02 457.9C1124.98 455.08 1123.93 451.75 1123.87 447.91H1137.37C1137.55 450.49 1138.45 452.53 1140.07 454.03C1141.75 455.53 1144.03 456.28 1146.91 456.28C1149.85 456.28 1152.16 455.59 1153.84 454.21C1155.52 452.77 1156.36 450.91 1156.36 448.63C1156.36 446.77 1155.79 445.24 1154.65 444.04C1153.51 442.84 1152.07 441.91 1150.33 441.25C1148.65 440.53 1146.31 439.75 1143.31 438.91C1139.23 437.71 1135.9 436.54 1133.32 435.4C1130.8 434.2 1128.61 432.43 1126.75 430.09C1124.95 427.69 1124.05 424.51 1124.05 420.55C1124.05 416.83 1124.98 413.59 1126.84 410.83C1128.7 408.07 1131.31 405.97 1134.67 404.53C1138.03 403.03 1141.87 402.28 1146.19 402.28C1152.67 402.28 1157.92 403.87 1161.94 407.05C1166.02 410.17 1168.27 414.55 1168.69 420.19H1154.83C1154.71 418.03 1153.78 416.26 1152.04 414.88C1150.36 413.44 1148.11 412.72 1145.29 412.72C1142.83 412.72 1140.85 413.35 1139.35 414.61C1137.91 415.87 1137.19 417.7 1137.19 420.1C1137.19 421.78 1137.73 423.19 1138.81 424.33C1139.95 425.41 1141.33 426.31 1142.95 427.03C1144.63 427.69 1146.97 428.47 1149.97 429.37C1154.05 430.57 1157.38 431.77 1159.96 432.97C1162.54 434.17 1164.76 435.97 1166.62 438.37C1168.48 440.77 1169.41 443.92 1169.41 447.82C1169.41 451.18 1168.54 454.3 1166.8 457.18C1165.06 460.06 1162.51 462.37 1159.15 464.11C1155.79 465.79 1151.8 466.63 1147.18 466.63ZM1210.93 413.35V429.1H1232.08V439.09H1210.93V455.74H1234.78V466H1198.33V403.09H1234.78V413.35H1210.93ZM1276.83 456.01H1297.53V466H1264.23V403.18H1276.83V456.01ZM1373.49 403.18L1352.25 444.13V466H1339.65V444.13L1318.32 403.18H1332.54L1346.04 431.89L1359.45 403.18H1373.49ZM1404.33 466.63C1402.05 466.63 1400.16 465.94 1398.66 464.56C1397.22 463.12 1396.5 461.35 1396.5 459.25C1396.5 457.15 1397.22 455.41 1398.66 454.03C1400.16 452.59 1402.05 451.87 1404.33 451.87C1406.55 451.87 1408.38 452.59 1409.82 454.03C1411.26 455.41 1411.98 457.15 1411.98 459.25C1411.98 461.35 1411.26 463.12 1409.82 464.56C1408.38 465.94 1406.55 466.63 1404.33 466.63Z" fill="url(#paint4_linear_5_5)"/>
<defs>
<linearGradient id="paint0_linear_5_5" x1="248.914" y1="343" x2="325.978" y2="436.228" gradientUnits="userSpaceOnUse">
<stop stop-color="#FFD074"/>
<stop offset="1" stop-color="#795721"/>
</linearGradient>
<linearGradient id="paint1_linear_5_5" x1="139.37" y1="346.5" x2="38.714" y2="470.12" gradientUnits="userSpaceOnUse">
<stop stop-color="#FFCE6E"/>
<stop offset="0.5" stop-color="#B38128"/>
<stop offset="1" stop-color="#956A27"/>
</linearGradient>
<linearGradient id="paint2_linear_5_5" x1="90.5634" y1="264.5" x2="248.769" y2="200.586" gradientUnits="userSpaceOnUse">
<stop stop-color="#FCDA87"/>
<stop offset="0.617916" stop-color="#9D7128"/>
</linearGradient>
<radialGradient id="paint3_radial_5_5" cx="0" cy="0" r="1" gradientTransform="matrix(101.409 103 -111.713 93.5 146.962 18.5)" gradientUnits="userSpaceOnUse">
<stop offset="0.0144231" stop-color="#FDFDF4"/>
<stop offset="0.0528846" stop-color="#FFFB7D"/>
<stop offset="0.216346" stop-color="#EBB355"/>
<stop offset="0.408654" stop-color="#D79732"/>
<stop offset="1" stop-color="#7E5417"/>
</radialGradient>
<linearGradient id="paint4_linear_5_5" x1="370.736" y1="447" x2="1446.21" y2="433.968" gradientUnits="userSpaceOnUse">
<stop offset="0.105769" stop-color="#9B743B"/>
<stop offset="0.245192" stop-color="#E68B00"/>
<stop offset="0.514423" stop-color="#815000"/>
<stop offset="0.75" stop-color="#D48A00"/>
</linearGradient>
</defs>
</svg>
